<svg width="130" height="87" viewBox="0 0 130 87" fill="none" xmlns="http://www.w3.org/2000/svg">
<path d="M54.5811 30.6262C55.2199 30.7541 55.6939 30.978 56.003 31.2979C56.3327 31.6177 56.4976 31.9909 56.4976 32.4173C56.4976 33.121 56.3018 33.6327 55.9103 33.9526C55.5393 34.2724 54.9417 34.4004 54.1174 34.3364C52.2628 34.1871 50.8099 34.0912 49.7589 34.0485C48.7286 33.9846 47.3685 33.9419 45.6787 33.9206C44.9162 37.844 44.2155 41.7888 43.5767 45.7549C43.35 47.2049 43.113 48.8894 42.8657 50.8085C42.6185 52.7062 42.4536 54.2415 42.3712 55.4142C42.33 56.0326 42.0827 56.5124 41.6293 56.8536C41.1759 57.1734 40.6298 57.3333 39.991 57.3333C39.311 57.3333 38.7855 57.1627 38.4145 56.8216C38.0436 56.4804 37.8581 56.0326 37.8581 55.4782C37.8581 54.9665 37.9303 54.1242 38.0745 52.9514C38.2394 51.7573 38.4248 50.5099 38.6309 49.2092C38.8576 47.9085 39.0328 46.7784 39.1564 45.8189C39.3831 44.1983 39.6407 42.5884 39.9292 40.9892C40.2177 39.39 40.5062 37.876 40.7947 36.4474C40.8565 36.1275 40.9286 35.765 41.0111 35.3599C41.0935 34.9335 41.1862 34.4643 41.2893 33.9526C39.2697 34.0166 37.683 34.1871 36.5289 34.4643C35.3749 34.7415 34.5506 35.136 34.056 35.6478C33.5821 36.1382 33.3451 36.7779 33.3451 37.5668C33.3451 38.2918 33.5512 38.9848 33.9633 39.6458C34.0457 39.7951 34.087 39.955 34.087 40.1256C34.087 40.5308 33.85 40.9146 33.376 41.2771C32.9226 41.6182 32.4487 41.7888 31.9541 41.7888C31.6038 41.7888 31.3153 41.6822 31.0886 41.469C30.6764 41.1065 30.3364 40.5947 30.0685 39.9337C29.8006 39.2514 29.6667 38.4837 29.6667 37.6308C29.6667 35.8184 30.2334 34.3684 31.3668 33.2809C32.5208 32.1721 34.2621 31.3618 36.5908 30.8501C38.94 30.3383 41.9487 30.0825 45.6168 30.0825C47.8837 30.0825 49.6868 30.1251 51.0263 30.2104C52.3864 30.2957 53.5713 30.4343 54.5811 30.6262Z" fill="#073B4C"/>
<path d="M64.6094 47.3541C64.8773 47.3541 65.0833 47.4927 65.2276 47.7699C65.3718 48.0471 65.444 48.399 65.444 48.8254C65.444 49.8489 65.1452 50.4566 64.5475 50.6485C63.3111 51.0963 61.951 51.3522 60.4673 51.4162C60.0757 53.2073 59.3029 54.6466 58.1489 55.7341C56.9949 56.8002 55.6863 57.3333 54.2232 57.3333C52.9868 57.3333 51.9255 57.0241 51.0393 56.4058C50.1738 55.7874 49.5144 54.9665 49.061 53.943C48.6077 52.9195 48.381 51.8106 48.381 50.6166C48.381 48.996 48.6798 47.5567 49.2774 46.2986C49.875 45.0193 50.6993 44.0277 51.7503 43.3241C52.8013 42.5991 53.9656 42.2366 55.2433 42.2366C56.8094 42.2366 58.0665 42.8017 59.0144 43.9318C59.983 45.0406 60.5497 46.4159 60.7146 48.0578C61.6831 47.9938 62.8371 47.7806 64.1766 47.4181C64.3415 47.3755 64.4857 47.3541 64.6094 47.3541ZM54.4705 53.943C55.1299 53.943 55.6966 53.6658 56.1706 53.1114C56.6652 52.557 56.9949 51.7573 57.1598 50.7125C56.5209 50.2647 56.0264 49.6783 55.676 48.9534C55.3463 48.2284 55.1814 47.4607 55.1814 46.6505C55.1814 46.3093 55.2124 45.9681 55.2742 45.627H55.1196C54.2953 45.627 53.605 46.0428 53.0486 46.8744C52.5128 47.6846 52.2449 48.8361 52.2449 50.3287C52.2449 51.5015 52.4613 52.397 52.894 53.0154C53.3474 53.6338 53.8729 53.943 54.4705 53.943Z" fill="#073B4C"/>
<path d="M70.8278 57.3333C69.6326 57.3333 68.2828 57.2267 66.7785 57.0135C65.9542 56.9069 65.3875 56.683 65.0784 56.3418C64.7692 56.0006 64.6353 55.4462 64.6765 54.6786C64.8208 52.5676 65.1608 49.9662 65.6966 46.8744C66.2324 43.7612 66.8815 40.7653 67.644 37.8867C67.7882 37.3536 68.0767 36.9805 68.5095 36.7672C68.9423 36.554 69.509 36.4474 70.2096 36.4474C71.4667 36.4474 72.0952 36.8099 72.0952 37.5349C72.0952 37.8334 72.0334 38.1746 71.9097 38.5584C71.3739 40.2642 70.8381 42.5564 70.3023 45.4351C69.7666 48.2923 69.3853 51.0217 69.1586 53.6231C69.7769 53.6871 70.4775 53.7191 71.2606 53.7191C74.8669 53.7191 77.5562 52.5889 79.3284 50.3287C81.1213 48.0685 82.0177 45.0512 82.0177 41.2771C82.0177 38.7396 81.317 36.7779 79.9157 35.3919C78.5144 34.0059 76.5361 33.3129 73.9808 33.3129C72.3322 33.3129 70.6939 33.5794 69.0659 34.1125C67.4585 34.6456 66.0057 35.3492 64.7074 36.2235C64.4395 36.4154 64.151 36.5114 63.8419 36.5114C63.4916 36.5114 63.2134 36.3621 63.0073 36.0636C62.8012 35.7437 62.6982 35.3599 62.6982 34.9121C62.6982 34.4004 62.7806 33.9846 62.9455 33.6647C63.1103 33.3236 63.3885 33.0144 63.7801 32.7372C65.202 31.735 66.8712 30.978 68.7877 30.4663C70.7042 29.9332 72.5486 29.6667 74.3208 29.6667C76.8349 29.6667 79.009 30.1251 80.8431 31.042C82.6771 31.9376 84.0887 33.2596 85.0779 35.0081C86.0671 36.7566 86.5616 38.8676 86.5616 41.341C86.5616 44.5608 85.9434 47.3755 84.707 49.785C83.4705 52.1731 81.6674 54.0282 79.2975 55.3503C76.9277 56.6723 74.1044 57.3333 70.8278 57.3333Z" fill="#073B4C"/>
<path d="M93.8548 57.3333C92.6389 57.3333 91.5982 57.0241 90.7327 56.4058C89.8878 55.7661 89.249 54.9345 88.8162 53.911C88.3835 52.8875 88.1671 51.7893 88.1671 50.6166C88.1671 48.996 88.4556 47.5567 89.0326 46.2986C89.6302 45.0193 90.4339 44.0277 91.4437 43.3241C92.4535 42.5991 93.5869 42.2366 94.8439 42.2366C96.0598 42.2366 97.1004 42.5564 97.966 43.1961C98.8315 43.8145 99.4806 44.6354 99.9134 45.6589C100.346 46.6825 100.562 47.7806 100.562 48.9534C100.562 50.5739 100.264 52.0239 99.6661 53.3033C99.0685 54.5613 98.2545 55.5528 97.2241 56.2778C96.2143 56.9815 95.0912 57.3333 93.8548 57.3333ZM94.1948 53.879C94.8954 53.879 95.4827 53.4845 95.9567 52.6956C96.4513 51.9066 96.6986 50.7552 96.6986 49.2412C96.6986 48.0685 96.4925 47.1835 96.0804 46.5865C95.6682 45.9895 95.1736 45.6909 94.5966 45.6909C93.8548 45.6909 93.2365 46.0854 92.742 46.8744C92.268 47.642 92.031 48.7934 92.031 50.3287C92.031 51.5441 92.2371 52.4397 92.6492 53.0154C93.0614 53.5911 93.5766 53.879 94.1948 53.879Z" fill="#073B4C"/>
<path d="M0.5 85C0.5 85.8284 1.17157 86.5 2 86.5C2.82843 86.5 3.5 85.8284 3.5 85H0.5ZM29.8959 83.5C29.0675 83.5 28.3959 84.1716 28.3959 85C28.3959 85.8284 29.0675 86.5 29.8959 86.5V83.5ZM129.729 2C129.729 1.17157 129.058 0.5 128.229 0.5C127.401 0.5 126.729 1.17157 126.729 2H129.729ZM103.123 3.5C103.951 3.5 104.623 2.82843 104.623 2C104.623 1.17157 103.951 0.5 103.123 0.5V3.5ZM0.5 7V85H3.5V7H0.5ZM29.8959 86.5H123.229V83.5H29.8959V86.5ZM129.729 80V2H126.729V80H129.729ZM103.123 0.5H7V3.5H103.123V0.5ZM123.229 86.5C126.819 86.5 129.729 83.5898 129.729 80H126.729C126.729 81.933 125.162 83.5 123.229 83.5V86.5ZM3.5 7C3.5 5.067 5.067 3.5 7 3.5V0.5C3.41015 0.5 0.5 3.41015 0.5 7H3.5Z" fill="#06D6A0"/>
</svg>
