<svg xmlns="http://www.w3.org/2000/svg" viewBox="0 0 135.13 188.49"><defs><style>.cls-1{isolation:isolate;}.cls-2,.cls-5{fill:none;stroke-miterlimit:10;}.cls-2{stroke:#073b4c;stroke-width:5px;}.cls-3,.cls-6,.cls-7{font-size:18.97px;font-family:Chalkboard-Bold, Chalkboard;font-weight:700;}.cls-3{letter-spacing:-0.02em;}.cls-4{letter-spacing:-0.05em;}.cls-5{stroke:#1d1d1b;stroke-width:3px;stroke-dasharray:4;}.cls-6{letter-spacing:-0.08em;}.cls-7{letter-spacing:-0.05em;}.cls-8{letter-spacing:-0.05em;}.cls-9{fill:#99b9c1;opacity:0.27;mix-blend-mode:overlay;}</style></defs><g class="cls-1"><g id="Layer_2" data-name="Layer 2"><g id="Layer_2-2" data-name="Layer 2"><path class="cls-2" d="M132.63,27.26V174a12,12,0,0,1-12,12H14.5a12,12,0,0,1-12-12V27.26a12,12,0,0,1,12-12H45.91v8.06a1.94,1.94,0,0,0,1.94,1.94H89.3a1.94,1.94,0,0,0,1.94-1.94V15.26h29.39A12,12,0,0,1,132.63,27.26Z"/><rect class="cls-2" x="57.93" y="2.5" width="21.3" height="8.13" rx="4.07"/><path class="cls-2" d="M91.24,15.26V13.41a2,2,0,0,0-1.94-1.95H47.85a2,2,0,0,0-1.94,1.95v1.85"/><text class="cls-3" transform="translate(13.19 54.66)">A<tspan class="cls-4" x="12.22" y="0">.</tspan></text><line class="cls-5" x1="37.94" y1="53.76" x2="124.75" y2="53.76"/><text class="cls-6" transform="translate(12.81 86.42)">B<tspan class="cls-4" x="9.73" y="0">.</tspan></text><line class="cls-5" x1="37.56" y1="85.52" x2="124.37" y2="85.52"/><text class="cls-7" transform="translate(13 120.13)">C<tspan class="cls-4" x="10.58" y="0">.</tspan></text><line class="cls-5" x1="37.75" y1="119.23" x2="124.56" y2="119.23"/><text class="cls-6" transform="translate(12.62 152.94)">D<tspan class="cls-8" x="10.98" y="0">.</tspan></text><line class="cls-5" x1="37.37" y1="152.04" x2="124.17" y2="152.04"/><path class="cls-9" d="M119,186H87.58L52.85,10.63l69.62,4.63a10.16,10.16,0,0,1,10.16,10.16v147A13.61,13.61,0,0,1,119,186Z"/></g></g></g></svg>